<svg width="14" height="14" viewBox="0 0 14 14" fill="none" xmlns="http://www.w3.org/2000/svg">
<path d="M6.33333 6.31956C6.33333 5.95137 6.63181 5.65289 7 5.65289C7.36819 5.65289 7.66667 5.95137 7.66667 6.31956V10.3196C7.66667 10.6878 7.36819 10.9862 7 10.9862C6.63181 10.9862 6.33333 10.6878 6.33333 10.3196V6.31956Z" fill="#121417"/>
<path d="M7 3.03408C6.63181 3.03408 6.33333 3.33255 6.33333 3.70074C6.33333 4.06893 6.63181 4.36741 7 4.36741C7.36819 4.36741 7.66667 4.06893 7.66667 3.70074C7.66667 3.33255 7.36819 3.03408 7 3.03408Z" fill="#121417"/>
<path fill-rule="evenodd" clip-rule="evenodd" d="M7 0.333313C3.3181 0.333313 0.333334 3.31808 0.333334 6.99998C0.333334 10.6819 3.3181 13.6666 7 13.6666C10.6819 13.6666 13.6667 10.6819 13.6667 6.99998C13.6667 3.31808 10.6819 0.333313 7 0.333313ZM1.66667 6.99998C1.66667 9.9455 4.05448 12.3333 7 12.3333C9.94552 12.3333 12.3333 9.9455 12.3333 6.99998C12.3333 4.05446 9.94552 1.66665 7 1.66665C4.05448 1.66665 1.66667 4.05446 1.66667 6.99998Z" fill="#121417"/>
</svg>
