<svg width="38" height="38" viewBox="0 0 38 38" fill="none" xmlns="http://www.w3.org/2000/svg">
<path d="M26.73 23.663C27.2249 23.0504 27.4964 22.2875 27.5 21.5C27.5 20.5717 27.1313 19.6815 26.4749 19.0251C25.8185 18.3687 24.9283 18 24 18C23.0717 18 22.1815 18.3687 21.5251 19.0251C20.8687 19.6815 20.5 20.5717 20.5 21.5C20.5036 22.2875 20.7751 23.0504 21.27 23.663C20.3527 24.1338 19.5713 24.8317 19 25.69C18.4287 24.8317 17.6473 24.1338 16.73 23.663C17.2249 23.0504 17.4964 22.2875 17.5 21.5C17.5 20.5717 17.1313 19.6815 16.4749 19.0251C15.8185 18.3687 14.9283 18 14 18C13.0717 18 12.1815 18.3687 11.5251 19.0251C10.8687 19.6815 10.5 20.5717 10.5 21.5C10.5036 22.2875 10.7751 23.0504 11.27 23.663C10.2866 24.1655 9.4609 24.9296 8.88393 25.8713C8.30697 26.813 8.0011 27.8956 8 29C8 29.2652 8.10536 29.5196 8.29289 29.7071C8.48043 29.8946 8.73478 30 9 30H29C29.2652 30 29.5196 29.8946 29.7071 29.7071C29.8946 29.5196 30 29.2652 30 29C29.9989 27.8956 29.693 26.813 29.1161 25.8713C28.5391 24.9296 27.7134 24.1655 26.73 23.663ZM14 20C14.2967 20 14.5867 20.088 14.8334 20.2528C15.08 20.4176 15.2723 20.6519 15.3858 20.926C15.4994 21.2001 15.5291 21.5017 15.4712 21.7926C15.4133 22.0836 15.2704 22.3509 15.0607 22.5607C14.8509 22.7704 14.5836 22.9133 14.2926 22.9712C14.0017 23.0291 13.7001 22.9994 13.426 22.8858C13.1519 22.7723 12.9176 22.58 12.7528 22.3334C12.588 22.0867 12.5 21.7967 12.5 21.5C12.5 21.1022 12.658 20.7206 12.9393 20.4393C13.2206 20.158 13.6022 20 14 20V20ZM10.126 28C10.347 27.1405 10.8476 26.3789 11.5489 25.835C12.2502 25.2912 13.1125 24.9961 14 24.9961C14.8875 24.9961 15.7498 25.2912 16.4511 25.835C17.1524 26.3789 17.653 27.1405 17.874 28H10.126ZM24 20C24.2967 20 24.5867 20.088 24.8334 20.2528C25.08 20.4176 25.2723 20.6519 25.3858 20.926C25.4993 21.2001 25.5291 21.5017 25.4712 21.7926C25.4133 22.0836 25.2704 22.3509 25.0607 22.5607C24.8509 22.7704 24.5836 22.9133 24.2926 22.9712C24.0017 23.0291 23.7001 22.9994 23.426 22.8858C23.1519 22.7723 22.9176 22.58 22.7528 22.3334C22.588 22.0867 22.5 21.7967 22.5 21.5C22.5 21.1022 22.658 20.7206 22.9393 20.4393C23.2206 20.158 23.6022 20 24 20ZM20.127 28C20.3487 27.1414 20.8494 26.3807 21.5505 25.8377C22.2516 25.2946 23.1132 24.9999 24 24.9999C24.8868 24.9999 25.7484 25.2946 26.4495 25.8377C27.1506 26.3807 27.6513 27.1414 27.873 28H20.127ZM14.2 15.4C14.0409 15.6122 13.9725 15.8789 14.0101 16.1414C14.0476 16.404 14.1878 16.6409 14.4 16.8C14.6122 16.9591 14.8789 17.0275 15.1414 16.9899C15.404 16.9524 15.6409 16.8122 15.8 16.6C16.1726 16.1032 16.6557 15.7 17.2111 15.4223C17.7666 15.1446 18.379 15 19 15C19.621 15 20.2334 15.1446 20.7889 15.4223C21.3443 15.7 21.8274 16.1032 22.2 16.6C22.2788 16.7051 22.3775 16.7936 22.4905 16.8605C22.6035 16.9274 22.7286 16.9714 22.8586 16.9899C22.9886 17.0085 23.121 17.0013 23.2482 16.9687C23.3754 16.9361 23.4949 16.8788 23.6 16.8C23.7051 16.7212 23.7936 16.6225 23.8605 16.5095C23.9274 16.3965 23.9714 16.2714 23.99 16.1414C24.0085 16.0114 24.0013 15.879 23.9687 15.7518C23.9361 15.6246 23.8788 15.5051 23.8 15.4C23.253 14.6699 22.5468 14.0741 21.735 13.658C22.2272 13.0462 22.497 12.2852 22.5 11.5C22.5 10.5717 22.1313 9.6815 21.4749 9.02513C20.8185 8.36875 19.9283 8 19 8C18.0717 8 17.1815 8.36875 16.5251 9.02513C15.8687 9.6815 15.5 10.5717 15.5 11.5C15.5033 12.2849 15.773 13.0454 16.265 13.657C15.453 14.0732 14.7467 14.6694 14.2 15.4V15.4ZM19 10C19.2967 10 19.5867 10.088 19.8334 10.2528C20.08 10.4176 20.2723 10.6519 20.3858 10.926C20.4994 11.2001 20.5291 11.5017 20.4712 11.7926C20.4133 12.0836 20.2704 12.3509 20.0607 12.5607C19.8509 12.7704 19.5836 12.9133 19.2926 12.9712C19.0017 13.0291 18.7001 12.9994 18.426 12.8858C18.1519 12.7723 17.9176 12.58 17.7528 12.3334C17.588 12.0867 17.5 11.7967 17.5 11.5C17.5 11.1022 17.658 10.7206 17.9393 10.4393C18.2206 10.158 18.6022 10 19 10Z" fill="#2F80ED"/>
<rect x="0.5" y="0.5" width="37" height="37" rx="7.5" stroke="#2F80ED"/>
</svg>
