<svg width="38" height="38" viewBox="0 0 38 38" fill="none" xmlns="http://www.w3.org/2000/svg">
<path d="M31.8834 26.7716C32.7082 25.7506 33.1608 24.4792 33.1667 23.1666C33.1667 21.6195 32.5522 20.1358 31.4582 19.0418C30.3642 17.9479 28.8805 17.3333 27.3334 17.3333C25.7863 17.3333 24.3026 17.9479 23.2086 19.0418C22.1147 20.1358 21.5001 21.6195 21.5001 23.1666C21.506 24.4792 21.9586 25.7506 22.7834 26.7716C21.2546 27.5564 19.9522 28.7194 19.0001 30.15C18.048 28.7194 16.7455 27.5564 15.2167 26.7716C16.0415 25.7506 16.4942 24.4792 16.5001 23.1666C16.5001 21.6195 15.8855 20.1358 14.7915 19.0418C13.6976 17.9479 12.2138 17.3333 10.6667 17.3333C9.11965 17.3333 7.63592 17.9479 6.54196 19.0418C5.448 20.1358 4.83341 21.6195 4.83341 23.1666C4.83934 24.4792 5.29194 25.7506 6.11675 26.7716C4.4777 27.6091 3.10158 28.8827 2.13997 30.4522C1.17836 32.0216 0.668573 33.826 0.666748 35.6666C0.666748 36.1087 0.842343 36.5326 1.1549 36.8451C1.46746 37.1577 1.89139 37.3333 2.33341 37.3333H35.6667C36.1088 37.3333 36.5327 37.1577 36.8453 36.8451C37.1578 36.5326 37.3334 36.1087 37.3334 35.6666C37.3316 33.826 36.8218 32.0216 35.8602 30.4522C34.8986 28.8827 33.5225 27.6091 31.8834 26.7716ZM10.6667 20.6666C11.1612 20.6666 11.6445 20.8132 12.0557 21.0879C12.4668 21.3627 12.7872 21.7531 12.9764 22.2099C13.1657 22.6667 13.2152 23.1694 13.1187 23.6544C13.0222 24.1393 12.7841 24.5848 12.4345 24.9344C12.0849 25.284 11.6394 25.5221 11.1545 25.6186C10.6695 25.7151 10.1669 25.6655 9.71004 25.4763C9.25322 25.2871 8.86278 24.9667 8.58807 24.5555C8.31337 24.1444 8.16675 23.6611 8.16675 23.1666C8.16675 22.5036 8.43014 21.8677 8.89898 21.3989C9.36782 20.93 10.0037 20.6666 10.6667 20.6666V20.6666ZM4.21008 34C4.57841 32.5674 5.41268 31.298 6.58158 30.3917C7.75048 29.4853 9.18761 28.9934 10.6667 28.9934C12.1459 28.9934 13.583 29.4853 14.7519 30.3917C15.9208 31.298 16.7551 32.5674 17.1234 34H4.21008ZM27.3334 20.6666C27.8279 20.6666 28.3112 20.8132 28.7223 21.0879C29.1335 21.3627 29.4539 21.7531 29.6431 22.2099C29.8323 22.6667 29.8818 23.1694 29.7854 23.6544C29.6889 24.1393 29.4508 24.5848 29.1012 24.9344C28.7515 25.284 28.3061 25.5221 27.8211 25.6186C27.3362 25.7151 26.8335 25.6655 26.3767 25.4763C25.9199 25.2871 25.5294 24.9667 25.2547 24.5555C24.98 24.1444 24.8334 23.6611 24.8334 23.1666C24.8334 22.5036 25.0968 21.8677 25.5656 21.3989C26.0345 20.93 26.6704 20.6666 27.3334 20.6666ZM20.8784 34C21.2479 32.5689 22.0824 31.3012 23.2509 30.3961C24.4193 29.491 25.8554 28.9998 27.3334 28.9998C28.8114 28.9998 30.2475 29.491 31.4159 30.3961C32.5844 31.3012 33.4189 32.5689 33.7884 34H20.8784ZM11.0001 13C10.7349 13.3536 10.621 13.7981 10.6835 14.2357C10.746 14.6732 10.9798 15.0681 11.3334 15.3333C11.687 15.5985 12.1315 15.7124 12.5691 15.6499C13.0067 15.5874 13.4015 15.3536 13.6667 15C14.2877 14.172 15.093 13.5 16.0187 13.0371C16.9444 12.5743 17.9651 12.3333 19.0001 12.3333C20.035 12.3333 21.0558 12.5743 21.9815 13.0371C22.9072 13.5 23.7124 14.172 24.3334 15C24.4647 15.1751 24.6293 15.3226 24.8176 15.4341C25.0059 15.5456 25.2144 15.6189 25.431 15.6499C25.6477 15.6808 25.8684 15.6688 26.0804 15.6145C26.2924 15.5602 26.4917 15.4646 26.6667 15.3333C26.8418 15.202 26.9894 15.0374 27.1009 14.8491C27.2124 14.6608 27.2857 14.4523 27.3167 14.2357C27.3476 14.019 27.3356 13.7983 27.2813 13.5863C27.2269 13.3743 27.1314 13.1751 27.0001 13C26.0885 11.7831 24.9114 10.7902 23.5584 10.0966C24.3788 9.07691 24.8284 7.80871 24.8334 6.49996C24.8334 4.95286 24.2188 3.46913 23.1249 2.37517C22.0309 1.28121 20.5472 0.666626 19.0001 0.666626C17.453 0.666626 15.9693 1.28121 14.8753 2.37517C13.7813 3.46913 13.1667 4.95286 13.1667 6.49996C13.1722 7.80814 13.6217 9.07569 14.4417 10.095C13.0884 10.7887 11.9112 11.7823 11.0001 13V13ZM19.0001 3.99996C19.4945 3.99996 19.9779 4.14658 20.389 4.42129C20.8001 4.69599 21.1206 5.08644 21.3098 5.54325C21.499 6.00007 21.5485 6.50273 21.452 6.98768C21.3556 7.47264 21.1175 7.91809 20.7678 8.26773C20.4182 8.61736 19.9728 8.85546 19.4878 8.95192C19.0029 9.04838 18.5002 8.99888 18.0434 8.80966C17.5866 8.62044 17.1961 8.30001 16.9214 7.88888C16.6467 7.47776 16.5001 6.99441 16.5001 6.49996C16.5001 5.83692 16.7635 5.20103 17.2323 4.73219C17.7012 4.26335 18.337 3.99996 19.0001 3.99996Z" fill="#AB0519"/>
</svg>
