<svg width="580" height="582" viewBox="0 0 580 582" fill="none" xmlns="http://www.w3.org/2000/svg">
<path d="M34.8694 44.0621H228.692C270.163 44.0621 311.227 52.2305 349.54 68.1009C387.853 83.9712 422.665 107.233 451.988 136.557C481.311 165.882 504.571 200.695 520.44 239.009C536.309 277.323 544.475 318.387 544.473 359.857V540.261H350.678C309.206 540.265 268.139 532.099 229.822 516.231C191.506 500.362 156.691 477.101 127.364 447.776C98.0383 418.451 74.7758 383.637 58.9054 345.321C43.035 307.006 34.8675 265.939 34.8694 224.466V44.0621Z" fill="#AB0519"/>
<path d="M121.301 532.482V581.847H68.7029C50.4818 581.847 33.0069 574.609 20.1227 561.724C7.23837 548.84 0 531.365 0 513.144V463.765H52.5556C70.7756 463.769 88.2483 471.008 101.132 483.892C114.015 496.775 121.255 514.248 121.259 532.468L121.301 532.482Z" fill="#00BA88"/>
<path d="M580 68.7029V118.082H527.445C509.224 118.082 491.749 110.844 478.865 97.9595C465.98 85.0752 458.742 67.6004 458.742 49.3793V0H511.298C529.518 0.00370966 546.99 7.24319 559.874 20.1267C572.757 33.0101 579.996 50.4829 580 68.7029Z" fill="#FFE9EC"/>
</svg>
