<svg width="19" height="16" viewBox="0 0 19 16" fill="none" xmlns="http://www.w3.org/2000/svg">
<path fill-rule="evenodd" clip-rule="evenodd" d="M3.42364 10.8665C4.43888 11.5773 5.60186 11.9198 6.75387 11.9219C7.14983 13.0037 7.86942 13.9794 8.88466 14.6903C11.5237 16.5382 15.161 15.8968 17.0089 13.2578C18.8568 10.6188 18.2154 6.98141 15.5764 5.13354C14.5611 4.42267 13.3982 4.08018 12.2462 4.0781C11.8502 2.99628 11.1306 2.02057 10.1154 1.30969C7.47634 -0.53818 3.83898 0.103183 1.99112 2.74221C0.143247 5.38124 0.78461 9.01859 3.42364 10.8665ZM4.3796 9.50121C5.00136 9.93657 5.70069 10.1785 6.40615 10.2396C6.33429 8.9771 6.67055 7.68228 7.45213 6.56606C8.23372 5.44985 9.33544 4.69101 10.5464 4.32675C10.2477 3.68472 9.78116 3.1103 9.1594 2.67494C7.27438 1.35504 4.67628 1.81315 3.35637 3.69817C2.03646 5.5832 2.49458 8.1813 4.3796 9.50121ZM14.6204 6.49879C13.9987 6.06344 13.2993 5.82152 12.5939 5.76044C12.6657 7.02291 12.3295 8.31772 11.5479 9.43394C10.7663 10.5502 9.66458 11.309 8.45367 11.6733C8.75235 12.3153 9.21886 12.8897 9.84062 13.3251C11.7256 14.645 14.3237 14.1869 15.6437 12.3018C16.9636 10.4168 16.5054 7.8187 14.6204 6.49879Z" fill="#121417"/>
</svg>
