<svg width="20" height="21" viewBox="0 0 20 21" fill="none" xmlns="http://www.w3.org/2000/svg">
<path fill-rule="evenodd" clip-rule="evenodd" d="M3.92364 13.3664C4.93888 14.0773 6.10186 14.4198 7.25387 14.4219C7.64983 15.5037 8.36942 16.4794 9.38466 17.1903C12.0237 19.0382 15.661 18.3968 17.5089 15.7578C19.3568 13.1187 18.7154 9.48138 16.0764 7.63351C15.0611 6.92263 13.8982 6.58015 12.7462 6.57807C12.3502 5.49625 11.6306 4.52054 10.6154 3.80966C7.97634 1.96179 4.33898 2.60315 2.49112 5.24218C0.643247 7.88121 1.28461 11.5186 3.92364 13.3664ZM4.8796 12.0012C5.50136 12.4365 6.20069 12.6785 6.90615 12.7395C6.83429 11.4771 7.17055 10.1823 7.95213 9.06603C8.73372 7.94982 9.83544 7.19098 11.0464 6.82672C10.7477 6.18469 10.2812 5.61027 9.6594 5.17491C7.77438 3.85501 5.17628 4.31312 3.85637 6.19814C2.53646 8.08316 2.99458 10.6813 4.8796 12.0012ZM15.1204 8.99876C14.4987 8.56341 13.7993 8.32149 13.0939 8.26041C13.1657 9.52288 12.8295 10.8177 12.0479 11.9339C11.2663 13.0501 10.1646 13.809 8.95367 14.1732C9.25235 14.8152 9.71886 15.3897 10.3406 15.825C12.2256 17.1449 14.8237 16.6868 16.1437 14.8018C17.4636 12.9168 17.0054 10.3187 15.1204 8.99876Z" fill="#AB0519"/>
</svg>
