<svg width="580" height="558" viewBox="0 0 580 558" fill="none" xmlns="http://www.w3.org/2000/svg">
<path d="M284.576 9.07751H298.367C324.147 9.07751 348.871 19.3186 367.1 37.5478C385.329 55.777 395.57 80.5011 395.57 106.281V133.948C395.57 159.728 385.329 184.452 367.1 202.681C348.871 220.91 324.147 231.151 298.367 231.151H284.576V9.07751Z" fill="#FFB8C1"/>
<path d="M124.278 66.1039L135.363 57.9012C156.087 42.5666 182.053 36.0925 207.55 39.9031C233.047 43.7136 255.985 57.4967 271.32 78.2202L287.777 100.46C295.381 110.718 300.89 122.374 303.989 134.761C307.087 147.149 307.715 160.026 305.835 172.656C303.955 185.286 299.606 197.422 293.034 208.371C286.463 219.32 277.799 228.866 267.537 236.465L256.452 244.668L124.306 66.0834L124.278 66.1039Z" fill="#AB0519"/>
<path d="M29.3401 207.382L33.3719 194.195C40.9093 169.541 57.9315 148.892 80.6939 136.789C103.456 124.686 130.094 122.121 154.748 129.658L181.205 137.747C205.859 145.285 226.509 162.307 238.611 185.069C250.714 207.831 253.279 234.469 245.742 259.123L241.71 272.31L29.3401 207.382Z" fill="#FFC700"/>
<path d="M37.0505 377.286L32.4473 364.287C23.8417 339.985 25.2423 313.261 36.3408 289.992C47.4394 266.723 67.3268 248.817 91.6281 240.211L117.708 230.976C142.002 222.368 168.72 223.761 191.987 234.849C215.254 245.937 233.166 265.811 241.782 290.102L246.385 303.102L37.0333 377.237L37.0505 377.286Z" fill="#FFB8C1"/>
<path d="M144.377 509.381L132.945 501.669C111.572 487.253 96.8018 464.938 91.8827 439.631C86.9637 414.325 92.2992 388.101 106.715 366.729L122.186 343.792C136.603 322.459 158.894 307.718 184.168 302.803C209.441 297.888 235.632 303.201 256.993 317.576L268.425 325.287L144.292 509.323L144.377 509.381Z" fill="#00BA88"/>
<path d="M309.097 551.698L295.32 552.299C269.565 553.424 244.418 544.271 225.411 526.854C206.404 509.437 195.094 485.183 193.97 459.428L192.763 431.788C191.638 406.032 200.791 380.885 218.208 361.878C235.624 342.871 259.878 331.561 285.634 330.437L299.411 329.835L309.097 551.698Z" fill="#FFB8C1"/>
<path d="M466.766 487.708L456.049 496.386C436.014 512.61 410.355 520.211 384.716 517.516C359.078 514.821 335.559 502.052 319.335 482.017L301.924 460.516C285.7 440.481 278.1 414.822 280.795 389.183C283.489 363.545 296.259 340.026 316.294 323.803L327.011 315.124L466.766 487.708Z" fill="#AB0519"/>
<path d="M427.403 45.7875L439.161 52.9928C461.142 66.4628 476.872 88.1131 482.89 113.181C488.909 138.248 484.722 164.68 471.252 186.661L456.796 210.251C443.326 232.232 421.676 247.962 396.609 253.98C371.541 259.998 345.109 255.812 323.128 242.342L311.37 235.136L427.403 45.7875Z" fill="#00BA88"/>
<path d="M538.421 154.079L543.587 166.865C553.244 190.768 553.011 217.528 542.938 241.258C532.865 264.989 513.777 283.746 489.874 293.404L464.158 303.794C440.256 313.451 413.495 313.217 389.765 303.144C366.034 293.071 347.277 273.984 337.62 250.081L332.454 237.295L538.421 154.079Z" fill="#FFB8C1"/>
<path d="M553.524 323.549L550.071 336.9C543.616 361.859 527.511 383.231 505.298 396.315C483.085 409.4 456.585 413.124 431.626 406.67L404.841 399.742C379.882 393.288 358.509 377.182 345.425 354.969C332.341 332.757 328.616 306.256 335.071 281.297L338.524 267.946L553.524 323.549Z" fill="#FEC700"/>
</svg>
