<svg width="580" height="555" viewBox="0 0 580 555" fill="none" xmlns="http://www.w3.org/2000/svg">
<path d="M76.1146 261.95V277.246H118.791V0H0V157.652C22.1015 164.729 41.3833 178.644 55.0636 197.39C68.744 216.136 76.1156 238.743 76.1146 261.95Z" fill="#AB0519"/>
<path d="M75.7906 292.542V277.246H33.1134V554.492H151.905V396.841C129.803 389.764 110.522 375.848 96.8412 357.103C83.1608 338.357 75.7896 315.749 75.7906 292.542Z" fill="#00BA88"/>
<path d="M219.118 261.95V277.246H261.795V0H143.003V157.652C165.104 164.731 184.384 178.646 198.064 197.392C211.744 216.137 219.117 238.744 219.118 261.95Z" fill="#00BA88"/>
<path d="M218.794 292.542V277.246H176.103V554.492H294.908V396.841C272.807 389.764 253.525 375.848 239.845 357.103C226.164 338.357 218.793 315.749 218.794 292.542Z" fill="#AB0519"/>
<path d="M361.741 261.95V277.246H404.432V0H285.627V157.652C307.728 164.729 327.01 178.644 340.69 197.39C354.371 216.136 361.742 238.743 361.741 261.95Z" fill="#AB0519"/>
<path d="M361.417 292.542V277.246H318.74V554.492H437.532V396.841C415.431 389.762 396.151 375.846 382.471 357.101C368.791 338.355 361.418 315.749 361.417 292.542Z" fill="#00BA88"/>
<path d="M504.238 261.95V277.246H546.929V0H428.137V157.652C450.236 164.731 469.515 178.647 483.192 197.393C496.87 216.139 504.24 238.745 504.238 261.95Z" fill="#00BA88"/>
<path d="M503.928 292.542V277.246H461.208V554.492H580V396.841C557.906 389.756 538.634 375.838 524.961 357.093C511.289 338.347 503.924 315.744 503.928 292.542Z" fill="#AB0519"/>
</svg>
