<svg width="10" height="14" viewBox="0 0 10 14" fill="none" xmlns="http://www.w3.org/2000/svg">
<path fill-rule="evenodd" clip-rule="evenodd" d="M9.66667 4.99998C9.66667 6.58581 8.87566 7.98689 7.66667 8.83019V13.6666H5.94279L4.99998 12.7238L4.05717 13.6666H2.33333V8.83019C1.12434 7.98689 0.333334 6.58581 0.333334 4.99998C0.333334 2.42265 2.42267 0.333313 5 0.333313C7.57733 0.333313 9.66667 2.42265 9.66667 4.99998ZM8.33333 4.99998C8.33333 6.84093 6.84095 8.33331 5 8.33331C3.15905 8.33331 1.66667 6.84093 1.66667 4.99998C1.66667 3.15903 3.15905 1.66665 5 1.66665C6.84095 1.66665 8.33333 3.15903 8.33333 4.99998ZM3.66667 12.1715L4.99998 10.8382L6.33333 12.1716V9.47339C5.91086 9.59913 5.46332 9.66665 5 9.66665C4.53669 9.66665 4.08914 9.59913 3.66667 9.47339V12.1715Z" fill="black"/>
</svg>
