<svg width="38" height="38" viewBox="0 0 38 38" fill="none" xmlns="http://www.w3.org/2000/svg">
<path d="M15.5 30C16.7002 30.0072 17.8898 29.776 19 29.32C20.109 29.7799 21.2995 30.0112 22.5 30C26.145 30 29 28.055 29 25.571V21.429C29 18.945 26.145 17 22.5 17C22.331 17 22.165 17.008 22 17.017V12.333C22 9.9 19.145 8 15.5 8C11.855 8 9 9.9 9 12.333V25.667C9 28.1 11.855 30 15.5 30ZM27 25.571C27 26.72 25.152 28 22.5 28C19.848 28 18 26.72 18 25.571V24.646C19.3542 25.4696 20.9153 25.8897 22.5 25.857C24.0847 25.8897 25.6458 25.4696 27 24.646V25.571ZM22.5 19C25.152 19 27 20.28 27 21.429C27 22.578 25.152 23.857 22.5 23.857C19.848 23.857 18 22.577 18 21.429C18 20.281 19.848 19 22.5 19ZM15.5 10C18.152 10 20 11.23 20 12.333C20 13.436 18.152 14.667 15.5 14.667C12.848 14.667 11 13.437 11 12.333C11 11.229 12.848 10 15.5 10ZM11 15.482C12.3599 16.2896 13.9188 16.7001 15.5 16.667C17.0812 16.7001 18.6401 16.2896 20 15.482V17.33C18.9102 17.6047 17.9107 18.1585 17.1 18.937C16.5742 19.0508 16.0379 19.1091 15.5 19.111C12.848 19.111 11 17.881 11 16.778V15.482ZM11 19.927C12.3602 20.7338 13.9189 21.1439 15.5 21.111C15.678 21.111 15.85 21.089 16.025 21.08C16.0101 21.1958 16.0018 21.3123 16 21.429V23.514C15.832 23.524 15.67 23.556 15.5 23.556C12.848 23.556 11 22.326 11 21.222V19.927ZM11 24.371C12.3599 25.1786 13.9188 25.5891 15.5 25.556C15.668 25.556 15.833 25.543 16 25.535V25.571C16.0143 26.4223 16.3414 27.2385 16.919 27.864C16.4511 27.9523 15.9761 27.9979 15.5 28C12.848 28 11 26.77 11 25.667V24.371Z" fill="#9B51E0"/>
<rect x="0.5" y="0.5" width="37" height="37" rx="7.5" stroke="#9B51E0"/>
</svg>
