<svg width="12" height="14" viewBox="0 0 12 14" fill="none" xmlns="http://www.w3.org/2000/svg">
<path fill-rule="evenodd" clip-rule="evenodd" d="M10 6C11.1046 6 12 6.89543 12 8V12C12 13.1046 11.1046 14 10 14H2C0.895431 14 0 13.1046 0 12V8C0 6.89543 0.895431 6 2 6V4C2 1.79086 3.79086 0 6 0C8.20914 0 10 1.79086 10 4V6ZM6 1.33333C7.47276 1.33333 8.66667 2.52724 8.66667 4V6H3.33333V4C3.33333 2.52724 4.52724 1.33333 6 1.33333ZM10 7.33333H2C1.63181 7.33333 1.33333 7.63181 1.33333 8V12C1.33333 12.3682 1.63181 12.6667 2 12.6667H10C10.3682 12.6667 10.6667 12.3682 10.6667 12V8C10.6667 7.63181 10.3682 7.33333 10 7.33333Z" fill="#121417"/>
</svg>
