<svg width="18" height="18" viewBox="0 0 18 18" fill="none" xmlns="http://www.w3.org/2000/svg">
<path fill-rule="evenodd" clip-rule="evenodd" d="M14.8334 2.33335H3.16671C2.70647 2.33335 2.33337 2.70645 2.33337 3.16669V14.8334C2.33337 15.2936 2.70647 15.6667 3.16671 15.6667H14.8334C15.2936 15.6667 15.6667 15.2936 15.6667 14.8334V3.16669C15.6667 2.70645 15.2936 2.33335 14.8334 2.33335ZM17.3334 3.16669C17.3334 1.78597 16.2141 0.666687 14.8334 0.666687H3.16671C1.78599 0.666687 0.666707 1.78598 0.666707 3.16669V14.8334C0.666707 16.2141 1.78599 17.3334 3.16671 17.3334H14.8334C16.2141 17.3334 17.3334 16.2141 17.3334 14.8334V3.16669ZM9.00004 9.00002C11.3012 9.00002 13.1667 6.76144 13.1667 4.00002H11.5C11.5 6.1384 10.1091 7.33335 9.00004 7.33335C7.89095 7.33335 6.50004 6.1384 6.50004 4.00002H4.83337C4.83337 6.76144 6.69885 9.00002 9.00004 9.00002Z" fill="#00BA88"/>
</svg>
