<svg width="581" height="594" viewBox="0 0 581 594" fill="none" xmlns="http://www.w3.org/2000/svg">
<path d="M159.805 176.379V16.8679L0.423904 16.8679V176.379H159.805Z" fill="#AB0519"/>
<path d="M580.424 384.325V589.998H374.933V543.866C374.933 522.919 379.056 502.177 387.066 482.824C395.075 463.471 406.815 445.887 421.615 431.075C436.415 416.263 453.985 404.513 473.322 396.497C492.659 388.481 513.384 384.355 534.315 384.355H580.409L580.424 384.325Z" fill="#00BA88"/>
<path d="M159.865 593.632L579.916 160.079L579.348 159.511H580.424V0H421.043V1.07671L420.475 0.508466L0.707965 433.792H0.424072V593.303H159.536L159.865 593.632Z" fill="#FFE9EC"/>
</svg>
