<svg width="219" height="67" viewBox="0 0 219 67" fill="none" xmlns="http://www.w3.org/2000/svg">
<path d="M29.2277 23.6229C28.3801 22.8593 27.4468 22.1861 26.4445 21.6156C25.4921 21.0551 24.1005 20.2892 22.2698 19.3178C20.3495 18.3113 18.828 17.4588 17.7055 16.7603C16.6287 16.101 15.6859 15.263 14.9223 14.2864C14.1932 13.3523 13.8056 12.2178 13.8183 11.0554C13.8183 9.35337 14.4013 8.06361 15.5671 7.18616C16.7329 6.30871 18.3379 5.86852 20.3819 5.86559C21.9279 5.857 23.4598 6.14445 24.886 6.71075C25.1921 6.8296 25.4844 6.95726 25.7627 7.08932C25.8554 7.13666 25.9515 7.17785 26.0503 7.21257C26.5766 7.46552 27.1698 7.56588 27.7558 7.50114C28.3418 7.43641 28.8948 7.20944 29.3459 6.84852C29.7969 6.4876 30.126 6.0087 30.2923 5.47149C30.4585 4.93429 30.4544 4.36254 30.2806 3.8275C30.188 3.36593 29.9834 2.93115 29.6831 2.55755C29.3828 2.18396 28.995 1.8818 28.5505 1.67497C26.0986 0.532672 23.3959 -0.040637 20.6649 0.00223963C16.7406 0.00223963 13.4936 0.982398 10.9239 2.94272C8.3541 4.90303 7.06148 7.72466 7.04602 11.4076C7.04602 15.8682 9.02824 19.3589 12.9927 21.8797C14.5388 22.776 16.1353 23.5916 17.775 24.3228C19.7356 25.2501 21.2493 26.0351 22.3162 26.6778C23.3693 27.3122 24.2842 28.1326 25.0112 29.0945C25.7578 30.097 26.1448 31.3007 26.1152 32.528C26.1463 33.3052 25.9751 34.0777 25.6167 34.7771C25.2583 35.4766 24.7237 36.0814 24.0603 36.5381C22.6904 37.5065 20.9231 37.9907 18.7584 37.9907C16.9405 37.9604 15.1515 37.5532 13.5168 36.7978C13.0112 36.5777 12.5427 36.3576 12.1253 36.1419C11.3883 35.7708 10.5275 35.6884 9.7273 35.9122C8.92706 36.1359 8.25097 36.6482 7.84385 37.3393L7.6815 37.621C7.46678 37.9776 7.33097 38.372 7.28239 38.7801C7.23381 39.1883 7.27347 39.6015 7.39895 39.9946C7.52443 40.3877 7.73309 40.7523 8.01217 41.0663C8.29125 41.3802 8.63489 41.6368 9.02205 41.8204C9.81581 42.1833 10.6304 42.5037 11.4619 42.78C13.8018 43.5832 16.2702 43.9971 18.7584 44.0037C21.3183 44.0454 23.858 43.5682 26.208 42.6039C28.3143 41.7373 30.105 40.3012 31.3568 38.4749C32.6472 36.4842 33.2924 34.1773 33.2122 31.8413C33.2303 30.2483 32.8521 28.6738 32.1082 27.2457C31.3998 25.8751 30.4221 24.6455 29.2277 23.6229Z" fill="#FDFEFE"/>
<path d="M3.35369 31.5507C2.69091 31.5498 2.04277 31.7356 1.49131 32.0844C0.939852 32.4333 0.509877 32.9297 0.25582 33.5106C0.00176403 34.0915 -0.0649492 34.7309 0.0641267 35.3478C0.193203 35.9647 0.512263 36.5314 0.980915 36.9761C1.44957 37.4209 2.04674 37.7237 2.69682 37.8462C3.3469 37.9686 4.02067 37.9053 4.63282 37.6642C5.24497 37.4232 5.76797 37.0151 6.13561 36.4918C6.50326 35.9685 6.69902 35.3534 6.6981 34.7244C6.6981 33.8827 6.34574 33.0754 5.71854 32.4802C5.09134 31.885 4.24068 31.5507 3.35369 31.5507Z" fill="#FDFEFE"/>
<path d="M38.3377 8.41C38.3387 7.78123 38.143 7.16633 37.7756 6.6431C37.4082 6.11987 36.8854 5.71183 36.2735 5.47061C35.6617 5.22938 34.9881 5.16582 34.3382 5.28795C33.6882 5.41008 33.091 5.71243 32.6222 6.15673C32.1534 6.60103 31.8339 7.16732 31.7043 7.78395C31.5747 8.40057 31.6408 9.03983 31.8941 9.62082C32.1475 10.2018 32.5767 10.6984 33.1276 11.0479C33.6784 11.3973 34.3261 11.5838 34.9887 11.5838C35.8761 11.5838 36.7273 11.2495 37.3552 10.6545C37.9831 10.0594 38.3365 9.25215 38.3377 8.41Z" fill="#FDFEFE"/>
<path d="M64.8334 16.8616C63.2892 15.3902 61.4649 14.2102 59.4573 13.3841C57.3842 12.5274 55.1455 12.0911 52.8844 12.1031C50.5989 12.0866 48.335 12.5229 46.2373 13.3841C44.2157 14.2049 42.3782 15.3853 40.8241 16.8616C39.2809 18.3319 38.0523 20.0719 37.206 21.9854C36.3226 23.9727 35.8759 26.1101 35.8933 28.2669V62.8836C35.8933 63.7136 36.2408 64.5097 36.8593 65.0966C37.4778 65.6836 38.3167 66.0133 39.1913 66.0133C40.066 66.0133 40.9049 65.6836 41.5234 65.0966C42.1419 64.5097 42.4894 63.7136 42.4894 62.8836V41.0193C43.9546 42.0823 45.5832 42.9255 47.3181 43.5196C49.102 44.1343 50.9866 44.4443 52.8844 44.4352C55.1464 44.443 57.3853 44.0022 59.4573 43.141C63.5119 41.4712 66.741 38.3943 68.4839 34.5397C69.3718 32.5519 69.8293 30.4149 69.8293 28.2559C69.8293 26.0969 69.3718 23.96 68.4839 21.9722C67.616 20.0662 66.3776 18.3325 64.8334 16.8616ZM62.4028 32.079C61.3314 34.4439 59.351 36.3327 56.8643 37.3613C55.6037 37.8901 54.2395 38.1601 52.8612 38.1536C51.4876 38.1615 50.1268 37.9023 48.8628 37.3921C47.6288 36.9026 46.5082 36.1877 45.5647 35.288C44.6177 34.3789 43.8578 33.31 43.3243 32.1362C42.7685 30.935 42.4856 29.6361 42.494 28.3242V28.2625C42.4869 26.9538 42.7583 25.6573 43.2918 24.4505C43.8074 23.2788 44.5572 22.213 45.4998 21.3119C46.4499 20.4121 47.5683 19.6881 48.7978 19.177C50.0856 18.6416 51.4785 18.3715 52.8844 18.3846C54.263 18.3797 55.6272 18.6512 56.8875 19.1814C59.3742 20.21 61.3546 22.0988 62.426 24.4637C62.9738 25.6673 63.2564 26.9646 63.2564 28.2757C63.2564 29.5869 62.9738 30.8841 62.426 32.0878L62.4028 32.079Z" fill="#FDFEFE"/>
<path d="M95.3228 14.555C94.1575 13.8138 92.8859 13.2356 91.547 12.8382C88.7511 12.0223 85.7615 12.0223 82.9656 12.8382C81.6267 13.2356 80.3551 13.8138 79.1898 14.555V12.2264H72.5938V41.0545C72.5937 41.8846 72.9412 42.6806 73.5597 43.2676C74.1782 43.8545 75.0171 44.1843 75.8918 44.1843C76.7665 44.1843 77.6053 43.8545 78.2238 43.2676C78.8423 42.6806 79.1898 41.8846 79.1898 41.0545V26.1364C79.1838 25.1132 79.4018 24.0999 79.8299 23.1607C80.6529 21.3289 82.1903 19.87 84.1206 19.089C85.2298 18.6399 86.4314 18.434 87.6361 18.4866C88.8407 18.5392 90.0174 18.8489 91.0785 19.3927C92.2208 19.9743 93.1979 20.8095 93.9266 21.8269L95.3181 20.7309L99.029 17.9313C98.0241 16.5981 96.7675 15.4533 95.3228 14.555Z" fill="#FDFEFE"/>
<path d="M116.433 34.0688L106.567 12.2881H99.08L112.532 41.9482L102.93 61.2594C102.674 61.7608 102.555 62.3153 102.584 62.8719C102.613 63.4284 102.789 63.9691 103.095 64.4443C103.402 64.9194 103.83 65.3138 104.339 65.591C104.848 65.8683 105.423 66.0196 106.01 66.031C106.661 66.0293 107.298 65.851 107.847 65.5173C108.395 65.1835 108.831 64.7081 109.104 64.147L116.108 50.0213L120.014 42.1419L134.857 12.2925H127.245L116.433 34.0688Z" fill="#FDFEFE"/>
<path d="M160.55 14.4975C158.13 13.0003 155.303 12.2032 152.414 12.2032C149.525 12.2032 146.699 13.0003 144.278 14.4975L144.227 12.2041H137.631V41.1951C137.631 42.0252 137.979 42.8212 138.597 43.4082C139.216 43.9951 140.055 44.3249 140.929 44.3249C141.804 44.3249 142.643 43.9951 143.261 43.4082C143.88 42.8212 144.227 42.0252 144.227 41.1951V26.145C144.223 25.1176 144.441 24.1004 144.867 23.1561C145.283 22.2399 145.872 21.4043 146.607 20.691C147.349 19.979 148.234 19.4148 149.209 19.0315C150.216 18.6297 151.299 18.4246 152.391 18.4284C153.473 18.4233 154.545 18.6285 155.541 19.0315C156.51 19.4258 157.392 19.9886 158.143 20.691C158.894 21.3999 159.495 22.24 159.91 23.1649C160.337 24.1092 160.555 25.1264 160.55 26.1538V41.1951C160.55 42.0252 160.898 42.8212 161.516 43.4082C162.135 43.9951 162.974 44.3249 163.848 44.3249C164.723 44.3249 165.562 43.9951 166.181 43.4082C166.799 42.8212 167.146 42.0252 167.146 41.1951V26.145C167.168 23.8141 166.556 21.5172 165.37 19.4761C164.211 17.471 162.558 15.7626 160.55 14.4975Z" fill="#FDFEFE"/>
<path d="M182.765 0.130005H176.187V12.0856H169.976V16.9981H176.187V41.8205C176.187 43.1763 177.662 44.2768 179.485 44.2768C181.308 44.2768 182.765 43.1719 182.765 41.8205V16.9981H188.911V12.0856H182.765V0.130005Z" fill="#FDFEFE"/>
<path d="M214.423 14.555C213.258 13.8138 211.986 13.2356 210.647 12.8382C207.851 12.0223 204.862 12.0223 202.066 12.8382C200.727 13.2356 199.455 13.8138 198.29 14.555V12.2264H191.694V41.0545C191.694 41.8846 192.041 42.6806 192.66 43.2676C193.278 43.8545 194.117 44.1843 194.992 44.1843C195.867 44.1843 196.705 43.8545 197.324 43.2676C197.942 42.6806 198.29 41.8846 198.29 41.0545V26.1364C198.284 25.1132 198.502 24.0999 198.93 23.1607C199.753 21.3289 201.29 19.87 203.221 19.089C204.33 18.6399 205.532 18.434 206.736 18.4866C207.941 18.5392 209.117 18.8489 210.179 19.3927C211.321 19.9743 212.298 20.8095 213.027 21.8269L214.418 20.7309L218.129 17.9313C217.124 16.5981 215.868 15.4533 214.423 14.555Z" fill="#FDFEFE"/>
</svg>
