<svg width="14" height="16" viewBox="0 0 14 16" fill="none" xmlns="http://www.w3.org/2000/svg">
<path d="M1.66667 15.3333H12.3333C12.5101 15.3333 12.6797 15.2631 12.8047 15.1381C12.9298 15.013 13 14.8435 13 14.6667V6.50132C13.07 6.43804 13.1367 6.37129 13.2 6.30132C13.4522 5.98022 13.6273 5.6055 13.7118 5.20603C13.7963 4.80657 13.7879 4.39304 13.6873 3.99732L12.98 1.17199C12.944 1.0277 12.8608 0.899588 12.7436 0.808023C12.6265 0.716457 12.482 0.666698 12.3333 0.666656H1.66667C1.51796 0.666698 1.37353 0.716457 1.25636 0.808023C1.13918 0.899588 1.05599 1.0277 1.02 1.17199L0.314666 3.99599C0.213814 4.39156 0.205126 4.805 0.289271 5.20446C0.373415 5.60391 0.548146 5.97872 0.799999 6.29999C0.863282 6.36996 0.930033 6.43671 0.999999 6.49999V14.6667C0.999999 14.8435 1.07024 15.013 1.19526 15.1381C1.32029 15.2631 1.48985 15.3333 1.66667 15.3333ZM7.66666 14H6.33333V10.6667H7.66666V14ZM11.8127 1.99999L12.3927 4.31932C12.4425 4.51877 12.4462 4.72696 12.4036 4.92807C12.3609 5.12918 12.273 5.31792 12.1464 5.47994C12.0199 5.64197 11.858 5.77301 11.6733 5.86313C11.4885 5.95324 11.2856 6.00005 11.08 5.99999C10.7415 5.99784 10.416 5.8696 10.167 5.64031C9.91795 5.41102 9.76334 5.09715 9.73333 4.75999L9.50266 1.99999H11.8127ZM5.83533 1.99999H8.16466L8.37533 4.53332C8.39111 4.71991 8.36798 4.90775 8.3074 5.08493C8.24682 5.26212 8.15011 5.42479 8.0234 5.56266C7.89668 5.70053 7.74272 5.81059 7.57127 5.88587C7.39981 5.96115 7.21459 6.00001 7.02733 5.99999H6.97266C6.78541 6.00001 6.60019 5.96115 6.42873 5.88587C6.25727 5.81059 6.10331 5.70053 5.9766 5.56266C5.84988 5.42479 5.75318 5.26212 5.6926 5.08493C5.63202 4.90775 5.60888 4.71991 5.62467 4.53332L5.83533 1.99999ZM4.996 6.46666C5.24788 6.73964 5.55352 6.95755 5.8937 7.1067C6.23387 7.25585 6.60123 7.33301 6.97266 7.33332H7.02733C7.39877 7.33301 7.76612 7.25585 8.1063 7.1067C8.44647 6.95755 8.75211 6.73964 9.004 6.46666C9.02466 6.44399 9.03867 6.41599 9.05867 6.39332C9.37091 6.76479 9.77962 7.04289 10.2398 7.19698C10.6999 7.35107 11.1937 7.37518 11.6667 7.26666V14H9V9.99999C9 9.82318 8.92976 9.65361 8.80474 9.52858C8.67971 9.40356 8.51014 9.33332 8.33333 9.33332H5.66667C5.48985 9.33332 5.32029 9.40356 5.19526 9.52858C5.07024 9.65361 5 9.82318 5 9.99999V14H2.33333V7.26666C2.80637 7.3751 3.30017 7.35089 3.76033 7.19668C4.22049 7.04247 4.62916 6.76425 4.94133 6.39266C4.96133 6.41532 4.97533 6.44332 4.996 6.46666ZM1.60733 4.31932L2.18733 1.99999H4.49733L4.26667 4.75999C4.23665 5.09715 4.08205 5.41102 3.83303 5.64031C3.58402 5.8696 3.25849 5.99784 2.92 5.99999C2.71441 6.00005 2.51152 5.95324 2.32673 5.86313C2.14195 5.77301 1.98013 5.64197 1.85359 5.47994C1.72704 5.31792 1.63909 5.12918 1.59642 4.92807C1.55375 4.72696 1.55748 4.51877 1.60733 4.31932V4.31932Z" fill="#121417"/>
</svg>
